<svg viewBox="0 0 137.169 31.676" height="31.676" width="137.169" xmlns="http://www.w3.org/2000/svg"><g transform="translate(-266.288 -833.839)" data-name="Group 66" id="Group_66"><path stroke-width="1" stroke-miterlimit="10" stroke="rgba(0,0,0,0)" fill="#0049b5" transform="translate(-792.595 -249.447)" d="M1140.5,1109.315" data-name="Path 1" id="Path_1"></path><path stroke-width="1" stroke-miterlimit="10" stroke="rgba(0,0,0,0)" fill="#0049b5" transform="translate(-698.907 0)" d="M1042.33,854.762h0a5.106,5.106,0,1,0,5.106,5.106,5.106,5.106,0,1,1,10.212,0,5.106,5.106,0,1,0,5.106-5.106,5.106,5.106,0,1,1,0-10.212,5.106,5.106,0,1,0-5.106-5.106,5.106,5.106,0,1,1-10.212,0,5.106,5.106,0,1,0-5.106,5.106,5.106,5.106,0,1,1,0,10.212" data-name="Path 2" id="Path_2"></path><path stroke-width="1" stroke-miterlimit="10" stroke="rgba(0,0,0,0)" fill="#0049b5" transform="translate(-742.706 -99.778)" d="M1085.506,944.329" data-name="Path 3" id="Path_3"></path><path stroke-width="1" stroke-miterlimit="10" stroke="rgba(0,0,0,0)" fill="#0049b5" transform="translate(-792.595 -49.888)" d="M1140.5,889.333" data-name="Path 4" id="Path_4"></path><path stroke-width="1" stroke-miterlimit="10" stroke="rgba(0,0,0,0)" fill="#0049b5" transform="translate(-335.915 -12.97)" d="M642.714,848.637h-5.632v27.887h21.139v-5.308H642.714Z" data-name="Path 5" id="Path_5"></path><rect stroke-width="1" stroke-miterlimit="10" stroke="rgba(0,0,0,0)" fill="#0049b5" transform="translate(326.571 835.641)" height="27.887" width="5.632" data-name="Rectangle 1" id="Rectangle_1"></rect><path stroke-width="1" stroke-miterlimit="10" stroke="rgba(0,0,0,0)" fill="#0049b5" transform="translate(-1031.328 -0.381)" d="M1418.975,840.43a9.638,9.638,0,1,1-9.638,9.638,9.649,9.649,0,0,1,9.638-9.638m0-5.671a15.309,15.309,0,1,0,15.309,15.309,15.309,15.309,0,0,0-15.309-15.309" data-name="Path 6" id="Path_6"></path><path stroke-width="1" stroke-miterlimit="10" stroke="rgba(0,0,0,0)" fill="#0049b5" transform="translate(0 -0.621)" d="M282.094,859.8a9.471,9.471,0,1,1,8.792-12.979h6.1a15.306,15.306,0,1,0,0,7.017h-6.1a9.48,9.48,0,0,1-8.792,5.962" data-name="Path 7" id="Path_7"></path></g></svg> 