<svg width="150" height="41" viewBox="0 0 150 41" fill="none" xmlns="http://www.w3.org/2000/svg">
<path d="M23.5732 39.9292L26.0139 22.5457H38.0055L37.4576 26.4682H30.3224L29.9239 29.3322H36.0007L35.4777 32.9808H29.4009L28.9776 36.0067H36.3992L35.8513 39.9292H23.5732ZM42.8122 39.9292C42.5216 39.1821 42.2393 38.3311 41.9654 37.3764C41.6997 36.4135 41.4507 35.4048 41.2182 34.3505C40.9858 33.2962 40.77 32.2211 40.5707 31.1254C40.3715 30.0295 40.193 28.9628 40.0353 27.9251C39.8858 26.8874 39.753 25.9078 39.6368 24.9864C39.5289 24.0649 39.45 23.2513 39.4002 22.5457L44.5679 22.4212C44.5679 22.9525 44.5928 23.5585 44.6427 24.2392C44.7007 24.9199 44.7713 25.6422 44.8543 26.4059C44.9457 27.1614 45.0495 27.9417 45.1657 28.7469C45.2902 29.5522 45.423 30.3492 45.5641 31.1378C45.7136 31.9181 45.8671 32.6695 46.0249 33.3917C46.1909 34.114 46.3611 34.7739 46.5354 35.3716H46.8592C47.1746 34.8154 47.5067 34.1886 47.8553 33.4913C48.2041 32.7857 48.5569 32.051 48.9138 31.2872C49.2708 30.5152 49.6194 29.7265 49.9598 28.9213C50.3085 28.1078 50.6364 27.3149 50.9435 26.5429C51.2507 25.7708 51.533 25.0362 51.7903 24.3388C52.0476 23.6332 52.2636 22.9939 52.4379 22.4212L57.5931 22.5457C57.3688 23.2015 57.0825 23.9735 56.7338 24.8618C56.3851 25.7418 55.9953 26.6881 55.5633 27.701C55.1318 28.7054 54.6629 29.7556 54.1565 30.8514C53.6584 31.9389 53.1395 33.0181 52.5998 34.089C52.0684 35.1599 51.5247 36.1976 50.9685 37.2021C50.4206 38.1983 49.8768 39.1073 49.3372 39.9292H42.8122ZM67.219 40.0537C67.1773 39.5556 67.1357 39.0409 67.0941 38.5096C67.0613 37.97 67.0196 37.4138 66.9697 36.841H60.7309C60.4905 37.4719 60.2703 38.0613 60.071 38.6093C59.8722 39.1571 59.702 39.6386 59.5604 40.0537L54.5172 39.9292C54.7415 39.2817 55.0444 38.4889 55.4264 37.5508C55.8084 36.6044 56.2316 35.5875 56.6963 34.5C57.1699 33.4124 57.6722 32.2917 58.2031 31.1378C58.7344 29.9839 59.2658 28.8715 59.7972 27.8006C60.3286 26.7214 60.8433 25.7293 61.3414 24.8244C61.8478 23.9113 62.3043 23.1517 62.7113 22.5457H68.987C69.153 22.9441 69.3232 23.4423 69.4975 24.04C69.6802 24.6376 69.8587 25.3018 70.0331 26.0323C70.2074 26.7546 70.3818 27.5308 70.5561 28.3609C70.7305 29.1828 70.8924 30.0213 71.0417 30.8763C71.1994 31.7314 71.3488 32.5906 71.4898 33.454C71.6309 34.309 71.7558 35.1309 71.8635 35.9195C71.9713 36.6998 72.0587 37.4346 72.1248 38.1236C72.1998 38.8127 72.2539 39.4145 72.2872 39.9292L67.219 40.0537ZM65.1517 26.4682C64.9274 26.9081 64.6911 27.3855 64.4418 27.9002C64.2013 28.4149 63.9562 28.9545 63.7074 29.519C63.4581 30.0835 63.2052 30.6646 62.9476 31.2624C62.6988 31.86 62.4536 32.4577 62.2132 33.0555H66.559C66.4096 31.9181 66.2436 30.7974 66.0609 29.6933C65.8783 28.5809 65.6748 27.5058 65.4504 26.4682H65.1517ZM74.0177 39.9292C74.1421 39.1903 74.2628 38.493 74.3789 37.8372C74.5033 37.173 74.6282 36.5214 74.7526 35.8822C74.8853 35.2347 75.0222 34.5871 75.1632 33.9396C75.3048 33.2838 75.4542 32.5947 75.6119 31.8725C75.8112 30.9593 76.0142 30.0669 76.2219 29.1953C76.4378 28.3236 76.6497 27.4934 76.8568 26.7048C77.0645 25.9078 77.2638 25.1607 77.4548 24.4633C77.6458 23.7577 77.8244 23.1226 77.9904 22.5581H84.5398L86.0096 33.1925H86.1964L90.6417 22.5581H97.2041V25.1358C97.2041 26.8127 97.1875 28.2904 97.1542 29.5688C97.1214 30.839 97.0756 31.9597 97.0173 32.9309C96.9673 33.894 96.9096 34.7282 96.8429 35.4339C96.7769 36.1395 96.7102 36.7621 96.6436 37.3018C96.5775 37.833 96.5109 38.3104 96.4448 38.7337C96.3865 39.1489 96.3365 39.5473 96.2949 39.9292H91.3266C91.3932 39.3813 91.4593 38.7877 91.5259 38.1485C91.6004 37.501 91.6712 36.8327 91.7378 36.1437C91.8039 35.4547 91.8663 34.7573 91.9241 34.0517C91.9824 33.346 92.0324 32.6611 92.074 31.997C92.1151 31.3246 92.1442 30.6895 92.1609 30.0918C92.1859 29.4858 92.1942 28.942 92.1859 28.4606H92.0115L87.3295 39.6552H83.0581L81.5019 28.4606H81.3276C81.0949 29.2907 80.8664 30.1997 80.6426 31.1876C80.4266 32.1672 80.2148 33.1675 80.0077 34.1886C79.8083 35.2014 79.6215 36.2018 79.4471 37.1897C79.2728 38.1775 79.1193 39.0907 78.9865 39.9292H74.0177ZM110.703 40.0537C110.661 39.5556 110.619 39.0409 110.578 38.5096C110.545 37.97 110.503 37.4138 110.453 36.841H104.215C103.974 37.4719 103.754 38.0613 103.555 38.6093C103.355 39.1571 103.185 39.6386 103.044 40.0537L98.001 39.9292C98.2253 39.2817 98.5282 38.4889 98.9102 37.5508C99.2922 36.6044 99.7154 35.5875 100.18 34.5C100.653 33.4124 101.155 32.2917 101.687 31.1378C102.218 29.9839 102.75 28.8715 103.281 27.8006C103.812 26.7214 104.327 25.7293 104.825 24.8244C105.332 23.9113 105.788 23.1517 106.195 22.5457H112.471C112.637 22.9441 112.807 23.4423 112.981 24.04C113.164 24.6376 113.343 25.3018 113.517 26.0323C113.691 26.7546 113.866 27.5308 114.04 28.3609C114.214 29.1828 114.376 30.0213 114.526 30.8763C114.683 31.7314 114.833 32.5906 114.974 33.454C115.115 34.309 115.24 35.1309 115.347 35.9195C115.455 36.6998 115.543 37.4346 115.609 38.1236C115.684 38.8127 115.738 39.4145 115.77 39.9292L110.703 40.0537ZM108.636 26.4682C108.411 26.9081 108.175 27.3855 107.926 27.9002C107.685 28.4149 107.44 28.9545 107.191 29.519C106.942 30.0835 106.688 30.6646 106.431 31.2624C106.182 31.86 105.937 32.4577 105.696 33.0555H110.042C109.893 31.9181 109.727 30.7974 109.544 29.6933C109.362 28.5809 109.159 27.5058 108.934 26.4682H108.636ZM117.253 26.4682L117.8 22.5457H131.697L131.15 26.4682H126.629L124.736 39.9292H119.88L121.773 26.4682H117.253ZM132.083 35.0479C132.59 35.272 133.059 35.4671 133.491 35.6331C133.922 35.7909 134.329 35.9195 134.71 36.0191C135.101 36.1188 135.479 36.1935 135.844 36.2433C136.209 36.2848 136.583 36.3055 136.965 36.3055C137.828 36.3055 138.467 36.1644 138.882 35.8822C139.306 35.5999 139.517 35.2347 139.517 34.7864C139.517 34.3713 139.301 34.0309 138.87 33.7652C138.438 33.4913 137.841 33.2506 137.076 33.043C136.338 32.8521 135.661 32.6363 135.047 32.3955C134.441 32.1465 133.918 31.8517 133.478 31.5114C133.038 31.1627 132.697 30.7476 132.457 30.2661C132.216 29.7847 132.096 29.2119 132.096 28.5477C132.096 27.6096 132.249 26.7546 132.556 25.9825C132.872 25.2022 133.349 24.538 133.989 23.9901C134.636 23.4339 135.445 23.0023 136.417 22.6951C137.396 22.3879 138.55 22.2344 139.879 22.2344C140.31 22.2344 140.779 22.2676 141.285 22.334C141.792 22.3921 142.302 22.4876 142.817 22.6204C143.332 22.7449 143.834 22.9068 144.324 23.106C144.822 23.2969 145.278 23.5211 145.694 23.7785L143.838 27.0534C143.241 26.7878 142.593 26.5719 141.896 26.4059C141.199 26.2399 140.514 26.1569 139.841 26.1569C137.982 26.1569 137.052 26.6467 137.052 27.6262C137.052 27.8421 137.106 28.0289 137.214 28.1866C137.322 28.3443 137.483 28.4854 137.699 28.61C137.923 28.7345 138.193 28.8507 138.509 28.9586C138.833 29.0665 139.206 29.1828 139.629 29.3073C141.215 29.739 142.411 30.3284 143.216 31.0756C144.029 31.8227 144.436 32.7815 144.436 33.952C144.436 34.8735 144.282 35.7203 143.975 36.4923C143.668 37.2561 143.203 37.9161 142.581 38.4723C141.958 39.0285 141.169 39.4602 140.215 39.7673C139.26 40.0745 138.135 40.228 136.84 40.228C136.118 40.228 135.454 40.1907 134.848 40.116C134.242 40.0412 133.669 39.9334 133.129 39.7922C132.59 39.6428 132.079 39.4643 131.598 39.2568C131.116 39.0492 130.639 38.8127 130.166 38.547L132.083 35.0479Z" fill="url(#paint0_linear_469_221)"/>
<path d="M24.5683 20.1526C-0.4137 21.9742 2.1886 39.4096 2.1886 39.93C-2.39143 29.5208 1.66813 22.9284 4.2704 20.9333H0.106785C-0.153445 20.9333 -0.101404 20.569 2.1886 19.1117C5.05109 17.2901 13.8989 14.6878 20.4047 13.1264C25.6093 11.8773 38.534 11.7386 44.3458 11.8253C45.2132 11.5651 48.1451 10.2639 52.9333 7.14119C57.7215 4.01843 66.8988 1.15588 70.8891 0.114949C78.1755 0.0282059 94.4139 -0.0932346 101.076 0.114949C109.403 0.375178 119.292 5.57976 123.716 7.92182C128.14 10.2639 137.248 10.2639 142.192 10.2639C146.147 10.2639 148.351 8.70251 148.958 7.92182C148.958 8.35552 148.802 9.58729 148.177 11.0446C147.397 12.8662 148.958 14.948 149.739 20.1526C150.363 24.3163 149.739 27.9595 149.218 29.5209C149.045 29.4341 147.969 29.2086 146.095 26.9186C143.753 24.056 140.631 25.097 138.028 25.3572C135.426 25.6174 133.084 32.9038 132.563 28.7402C132.043 24.5765 133.604 22.7549 135.426 20.1526C136.883 18.0708 140.891 15.4685 142.712 14.4276L141.672 13.6469L106.801 14.4276L112.005 10.2639C110.01 9.0495 105.552 6.3084 103.678 5.0593C101.804 3.8102 98.0399 3.15096 96.3916 2.97747L71.93 3.2377C71.1493 3.49793 68.495 4.43475 64.1232 6.10022C59.7513 7.76568 54.4947 11.4783 52.4128 13.1264H85.462C93.3729 13.1264 100.382 11.7385 102.897 11.0446C102.984 11.218 102.429 11.8773 99.5143 13.1264C95.8711 14.6878 81.8188 17.0298 75.0528 17.0298C68.2868 17.0298 49.5503 18.331 24.5683 20.1526Z" fill="#FF1E3A"/>
<defs>
<linearGradient id="paint0_linear_469_221" x1="30.2841" y1="34.1757" x2="134.157" y2="34.1757" gradientUnits="userSpaceOnUse">
<stop stop-color="white"/>
<stop offset="1" stop-color="#FF1E3A"/>
</linearGradient>
</defs>
</svg>
