<svg xmlns="http://www.w3.org/2000/svg" fill="none" viewBox="0 0 807 174" height="174" width="807">
<path fill="black" d="M89 3.39996V19.8H19.4V58.8H78.1V74.9H19.4V133.8H0.899994V3.39996H89Z"></path>
<path fill="black" d="M377.4 3.39996C384 3.39996 390.1 4.09998 395.6 5.59998C401.1 7.09998 405.8 9.29996 409.8 12.3C413.8 15.3 416.9 19.2 419 23.9C421.2 28.6 422.2 34.1 422.2 40.5C422.2 45.1 421.5 49.1 420.2 52.5C418.8 56 417.1 58.9 415 61.4C412.9 63.9 410.6 65.9 408.2 67.5C405.7 69.1 403.3 70.3 401 71.2C406.5 73.7 410.4 77 412.7 81.3C415 85.6 416.4 91.1 417 97.9L417.9 109.1C418.4 115.6 419.2 120.6 420.2 124C421.2 127.4 422.6 130.3 424.2 132.7V133.6H402.6C401.5 130.8 400.7 127.8 400.3 124.8C399.9 121.7 399.5 117.7 399.1 112.7L398.4 103.1C397.8 94.9999 395.6 89.1 391.9 85.3C388.2 81.6 382.7 79.7 375.3 79.7H341.1V133.6H322.6V3.39996H377.4ZM341.2 64.4H374.8C385.1 64.4 392.5 62.4 396.9 58.4C401.3 54.4 403.5 48.6 403.5 41.1C403.5 34.7 401.4 29.5 397.2 25.5C393 21.5 386.1 19.5 376.3 19.5H341.2V64.4Z"></path>
<path fill="black" d="M540.4 3.39996V19.8H470.8V58.8H529.5V74.9H470.8V133.8H452.3V3.39996H540.4Z"></path>
<path fill="black" d="M581 3.39996V133.8H562.5V3.39996H581Z"></path>
<path fill="black" d="M701.3 3.39996V19.8H628V58.6H694.8V74.1H628V117.5H703.9V133.8H609.5V3.39996H701.3Z"></path>
<path fill="black" d="M755.2 1.5C754.6 1.5 754.1 1.89999 754 2.39999C753.9 2.59999 753.8 2.8 753.3 3C752.7 3.2 751.7 3.29999 750.4 3.29999L746.4 3.39999C739 3.59999 732.4 3.49999 727.3 3.29999C725.4 3.29999 725.1 2.89999 725.1 2.89999C725.1 2.19999 724.6 1.70001 723.9 1.70001C723.2 1.70001 722.7 2.19999 722.7 2.89999C722.7 3.99999 722.6 5.69999 722.4 7.89999C722.2 10.2 722 12 721.9 13.5C721.9 13.9 722.2 14.5 723.1 14.5C724 14.5 724.3 14 724.3 13.6C724.8 10.8 725.6 8.80001 726.7 7.70001C727.7 6.60001 729.4 6.10001 731.5 6.10001C733.2 6.10001 734.5 6.19999 735.1 6.29999C735.8 6.39999 735.9 6.69999 736 6.79999C736.1 6.99999 736.3 7.49999 736.3 8.89999V36C736.3 37.3 736.1 37.9 736 38.2C735.9 38.3 735.8 38.7 735 38.9C734.3 39.1 733.1 39.2 731.5 39.2C731.4 39.2 730.5 39.2 730.5 40.5C730.5 41.8 731.4 41.8 731.5 41.8C732.9 41.8 734 41.8 734.7 41.7L739.1 41.6L743.6 41.7C744.4 41.7 745.4 41.8 746.8 41.8C747.3 41.8 747.9 41.4 747.9 40.5C747.9 39.6 747.3 39.2 746.8 39.2C745.2 39.2 744 39.1 743.3 38.9C742.5 38.7 742.4 38.4 742.3 38.3C742.2 38 742 37.4 742 36.1V9C742 7.6 742.2 7.09999 742.3 6.89999C742.4 6.79999 742.5 6.49999 743.2 6.39999C743.7 6.29999 744.7 6.20001 746.8 6.20001C749.1 6.20001 750.8 6.70001 751.8 7.70001C752.8 8.80001 753.3 10.7 753.4 13.5C753.4 13.6 753.4 14.5 754.7 14.5C755.9 14.5 756 13.6 756 13.5C756 12.1 756.1 10.2 756.2 7.89999C756.3 5.59999 756.4 3.90001 756.6 2.70001C756.4 1.90001 755.9 1.5 755.2 1.5Z"></path>
<path fill="black" d="M805.8 39.2C804.4 39.2 803.4 39.1 802.8 39C802.3 38.8 802.1 38.6 802 38.4C801.9 38.1 801.7 37.5 801.6 36.1L800.4 8.89999C800.3 7.09999 800.9 6.6 801.1 6.5C801.6 6.2 802.6 5.79999 804.8 5.79999C804.9 5.79999 805.8 5.8 805.8 4.5C805.8 3.3 804.9 3.20001 804.8 3.20001C803.8 3.20001 803.2 3.19999 802.8 3.29999L800.1 3.39999C799.5 3.39999 799 3.39999 798.7 3.29999C798.3 3.29999 798 3.20001 797.8 3.20001C797 3.20001 795.9 3.50001 795.2 5.20001L783.2 32.6L770.9 6.79999C770.2 5.39999 769.7 4.60001 769.3 4.10001C768.8 3.50001 768.1 3.29999 767.4 3.29999C767.1 3.29999 766.7 3.29999 766.2 3.39999C765.7 3.39999 765.2 3.5 764.5 3.5C763.8 3.5 763.3 3.49999 762.9 3.39999L760.7 3.29999C760.6 3.29999 759.7 3.30001 759.7 4.60001C759.7 5.80001 760.6 5.89999 760.7 5.89999C761.9 5.89999 762.9 6.20001 763.7 6.70001C764 6.90001 764.3 7.20001 764.6 7.60001L764.1 34.5C764.1 36.3 763.7 37.6 763.2 38.3C762.7 39 761.7 39.3 760.4 39.3C760.3 39.3 759.4 39.3 759.4 40.6C759.4 41.9 760.3 41.9 760.4 41.9C761.4 41.9 762.2 41.9 762.8 41.8L765.8 41.7L768.9 41.8C769.5 41.8 770.4 41.9 771.5 41.9C771.6 41.9 772.5 41.9 772.5 40.6C772.5 39.3 771.6 39.3 771.5 39.3C769.9 39.3 768.8 39 768.3 38.3C767.7 37.6 767.4 36.3 767.5 34.5L767.9 13.6L780.7 40.9C780.7 41 780.8 41.1 780.9 41.2C781.7 42 783 41.8 783.4 40.9L795.2 13.6L796.1 36.3C796.2 37.7 796.1 38.3 796 38.5C795.9 38.7 795.8 38.9 795.3 39.1C794.9 39.2 794.2 39.4 792.6 39.4C792.5 39.4 791.6 39.4 791.6 40.7C791.6 42 792.5 42 792.6 42C793.8 42 794.6 42 795.3 41.9L799 41.8L803 41.9C803.7 41.9 804.7 42 805.9 42C806.3 42 807 41.7 807 40.7C806.9 39.4 806.2 39.2 805.8 39.2Z"></path>
<path fill="black" d="M288.5 3.79997C288.5 3.79997 288.1 2.89999 287.1 1.69999C285.6 -0.100006 282 0.399994 280.1 1.69999C279.2 2.29999 279 3.39998 279.4 4.39998C301.3 54.4 272.5 104.7 258.9 128C245.1 151.5 226.7 168.8 226.7 168.8C226 169.4 225 170.1 225.3 171.2C226.9 175.8 231.5 172.3 234.5 170.2C239.4 166.8 282.6 123.2 295.4 80.4C308 37.7 288.5 3.79997 288.5 3.79997Z"></path>
<path fill="black" d="M111.1 77.6C129 30 157.2 7.49998 159.9 5.09998C162.6 2.69998 161.9 2.39997 161.9 2.39997C160.6 -0.30003 158.3 0.599989 155.9 1.19999C153.7 1.79999 134 18 110.2 52.8C98.6 69.8 91.4 89.5 89.9 110.1C87.8 139.8 96.6 163.8 98 168.8C100.2 176.3 105 173.1 105 173.1C105 173.1 109.4 171.5 107.6 168.7C103.2 164.1 93.2 125.2 111.1 77.6Z"></path>
<path fill="black" d="M239.1 134.1C254 134.5 250.2 130.1 237.1 128.3C223.9 126.4 224.5 107.2 224.5 103.6V30.3C224.5 30.3 224.7 23.7 225 21.6C225.3 19.5 226.6 10.8 236.3 9.49998C241.2 8.59998 246.7 7.29999 246.1 4.69999C245.5 1.99999 236.4 2.79996 236.4 2.79996L221.4 3.29996C219.5 3.39996 217.6 3.39996 215.7 3.29996L200.7 2.79996C200.7 2.79996 191.5 2.09999 191 4.69999C190.4 7.39999 196.1 8.19998 200.8 9.49998C202.9 10.1 205.3 12.2 207.4 14.5C209.1 16.4 209.2 19.2 207.8 21.3C192.8 42.8 144 110.9 141 114.2C138.2 117.5 134.6 121.8 129.1 125.1C126.4 126.6 123.5 127.6 120.5 128.3C111 130.5 109.6 134.6 122.7 134.2C127 134.1 130.6 133.9 133.5 133.7C140.1 133.2 146.7 133.2 153.3 133.7C156.2 133.9 159.8 134.1 164.1 134.2C179 134.6 175.2 130.2 162.1 128.4C154.4 127.3 153.4 122 153.8 117.1C154.3 112.1 156.4 107.4 159.1 103.1C161.5 99.2 165.1 93.8 169.3 87.5C169.9 86.6 170.9 86.1 172 86.1H210.4C211.8 86.1 212.9 87.2 212.9 88.6V103.7C212.9 107.4 213.5 126.6 200.3 128.4C187.1 130.3 183.4 134.7 198.3 134.2C202.6 134.1 206.2 133.9 209.1 133.7C215.7 133.2 222.3 133.2 228.9 133.7C231.1 133.8 234.7 134 239.1 134.1ZM212.3 77.5C212.3 79.2 211 80.5 209.3 80.5H175.7C174.7 80.5 174.1 79.4 174.7 78.6C186.4 61.2 200.7 40.4 209.3 27.9C210.2 26.6 212.2 27.2 212.3 28.8C212.3 29.7 212.3 30.3 212.3 30.3V77.5Z"></path>
</svg>
