<svg width="177" height="20" viewBox="0 0 177 20" fill="none" xmlns="http://www.w3.org/2000/svg"> <path d="M14.4217 4.52214L15.8516 1.35938H0V19.2302H4.0048V12.1025H10.9978L12.4166 8.96262H4.0048V4.52214H14.4217Z" fill="black"></path> <path d="M25.2907 1.35938H20.3643L12.2988 19.2302H16.5606L18.0519 15.7351H18.0575L18.2195 15.3626L19.398 12.5895L19.9789 11.2086L22.8331 4.47631L26.2626 12.5895H21.5037L20.1688 15.7351H27.6087L29.0721 19.2302H33.3282L25.2907 1.35938Z" fill="black"></path> <path d="M52.1686 13.6625C52.1686 17.5415 49.0575 19.6099 42.8632 19.6099C36.8421 19.6099 33.6807 16.7164 33.6807 13.0896H37.8642C37.9647 14.9517 40.0537 16.4701 43.2151 16.4701C46.5273 16.4701 47.9181 15.5762 47.9181 14.224C47.9181 12.3848 45.2315 12.5624 40.4782 11.7488C35.725 10.9295 34.2336 9.45124 34.2336 6.64371C34.2336 3.71012 36.1774 1 42.5728 1C48.7224 1 51.1018 3.92785 51.2024 7.09062H47.3204C47.1696 5.81291 45.7342 4.13985 42.5225 4.13985C38.9366 4.13985 38.0932 5.13681 38.0932 6.36296C38.0932 8.04747 40.9809 8.15061 44.0418 8.58606C48.8341 9.27362 52.1686 9.68042 52.1686 13.6625Z" fill="black"></path> <path d="M70.3716 4.52214H63.7751V19.2244H59.7703V4.52214H53.1738V1.35938H70.3716V4.52214Z" fill="black"></path> <path d="M77.3368 1.35938V19.2302H73.332V1.35938H77.3368Z" fill="black"></path> <path d="M99.455 1.35938V19.2302H94.9531L85.2958 6.4645V19.2302H81.291V1.35938H85.7706L95.4279 14.148V1.35938H99.455Z" fill="black"></path> <path d="M122.59 9.09783H114.245L112.899 12.2377H118.49C118.312 14.0769 117.044 16.5005 112.989 16.5005C108.71 16.5005 106.498 13.7446 106.498 10.2953C106.498 6.93774 108.319 4.22189 112.313 4.11875C112.385 4.11302 112.469 4.11302 112.547 4.11302C113.949 4.11302 115.05 4.38805 115.904 4.86361C115.949 4.8808 115.982 4.90945 116.022 4.93237C116.452 5.18447 116.815 5.48241 117.122 5.82046C117.463 6.19862 117.736 6.62261 117.949 7.08099H122.149C122.02 6.63407 121.864 6.21581 121.674 5.82046C120.775 3.92395 119.228 2.61759 117.323 1.85554C116.217 1.40863 114.994 1.13934 113.704 1.04193C113.324 1.01328 112.938 0.996094 112.547 0.996094C107.543 0.996094 102.421 3.78071 102.421 10.2896C102.421 16.8214 107.398 19.606 112.972 19.606C119.038 19.6175 123.115 16.2714 122.59 9.09783Z" fill="black"></path> <path d="M149.892 1.35938V19.2302H145.887V1.35938H149.892Z" fill="black"></path> <path d="M171.792 10.2919C171.792 17.4139 166.715 19.2302 161.292 19.2302H153.377V1.35938H161.292C166.715 1.35938 171.792 3.16994 171.792 10.2919ZM167.681 10.2919C167.681 5.69672 165.045 4.52214 160.889 4.52214H157.404V16.0617H160.889C165.045 16.0617 167.681 14.9157 167.681 10.2919Z" fill="black"></path> <path d="M176.965 17.4684C176.965 18.643 176.021 19.6113 174.876 19.6113C173.731 19.6113 172.787 18.643 172.787 17.4684C172.787 16.2709 173.731 15.2969 174.876 15.2969C176.021 15.3026 176.965 16.2709 176.965 17.4684Z" fill="black"></path> <path d="M136.078 1.39844H131.151L123.086 19.2692H127.348L128.839 15.7741H128.845L129.007 15.4017L130.185 12.6286L130.766 11.2477L133.62 4.51537L137.05 12.6286H132.291L130.956 15.7741H138.396L139.859 19.2692H144.115L136.078 1.39844Z" fill="black"></path> </svg>