<svg width="151" height="41" viewBox="0 0 151 41" fill="none" xmlns="http://www.w3.org/2000/svg">
<path d="M4.8005 17.0098C4.8005 16.2527 4.16781 15.6392 3.38714 15.6392H2.92508C2.14441 15.6392 1.51172 15.0257 1.51172 14.2686V1.65234H4.8458V15.5953H24.6796V1.65234H28.0137V14.2672C28.0137 15.0242 27.381 15.6377 26.6004 15.6377H26.1383C25.3576 15.6377 24.7249 16.2513 24.7249 17.0083C24.7249 17.7653 24.0923 18.3789 23.3116 18.3789H6.21386C5.43319 18.3789 4.8005 17.7653 4.8005 17.0083V17.0098Z" fill="#003428"/>
<path d="M54.228 18.3803H32.4297V1.65234H54.228C55.0087 1.65234 55.6414 2.26588 55.6414 3.02292V3.06831C55.6414 3.82534 56.2741 4.43888 57.0548 4.43888H57.5168C58.2975 4.43888 58.9302 5.05242 58.9302 5.80945V14.2628C58.9302 15.0198 58.2975 15.6333 57.5168 15.6333H57.0548C56.2741 15.6333 55.6414 16.2469 55.6414 17.0039V17.0068C55.6414 17.7639 55.0087 18.3774 54.228 18.3774V18.3803ZM55.5976 4.48427H35.7426V15.5923H55.5991V4.48281L55.5976 4.48427Z" fill="#003428"/>
<path d="M66.6403 17.0083V17.0054C66.6403 16.2483 66.0077 15.6348 65.227 15.6348H64.7649C63.9843 15.6348 63.3516 15.0213 63.3516 14.2642V5.80945C63.3516 5.05242 63.9843 4.43888 64.7649 4.43888H65.227C66.0077 4.43888 66.6403 3.82534 66.6403 3.06831V3.02292C66.6403 2.26588 67.273 1.65234 68.0537 1.65234H85.1484C85.9291 1.65234 86.5618 2.26588 86.5618 3.02292V3.06831C86.5618 3.82534 87.1945 4.43888 87.9751 4.43888H89.8521V7.24884H87.9313C87.1507 7.24884 86.518 6.63531 86.518 5.87827V4.48281H66.6841V15.5909H86.518V14.1954C86.518 13.4384 87.1507 12.8248 87.9313 12.8248H89.8521V15.6348H87.9751C87.1945 15.6348 86.5618 16.2483 86.5618 17.0054V17.0083C86.5618 17.7653 85.9291 18.3789 85.1484 18.3789H68.0537C67.273 18.3789 66.6403 17.7653 66.6403 17.0083Z" fill="#003428"/>
<path d="M23.3183 33.7111H4.80112V39.3296H1.50781V22.584H23.3183C24.0959 22.584 24.7256 23.1946 24.7256 23.9487V23.9707C24.7256 24.7248 25.3552 25.3354 26.1329 25.3354H26.607C27.3847 25.3354 28.0144 25.946 28.0144 26.7001V29.5803C28.0144 30.3344 27.3847 30.9451 26.607 30.9451H26.1329C25.3552 30.9451 24.7256 31.5557 24.7256 32.3098V32.3449C24.7256 33.099 24.0959 33.7096 23.3183 33.7096V33.7111ZM24.6788 25.3808H4.80112V30.8997H24.6788V25.3808Z" fill="#003428"/>
<path d="M37.1258 22.5859H54.2431C55.0208 22.5859 55.6505 23.1965 55.6505 23.9507V24.0356C55.6505 24.7897 56.2801 25.4003 57.0578 25.4003H57.5319C58.3096 25.4003 58.9392 26.0109 58.9392 26.765V39.3315H55.6037V33.7321H35.7653V39.3315H32.4297V26.765C32.4297 26.0109 33.0594 25.4003 33.837 25.4003H34.3111C35.0888 25.4003 35.7185 24.7897 35.7185 24.0356V23.9507C35.7185 23.1965 36.3481 22.5859 37.1258 22.5859ZM55.6037 25.4457H35.7653V30.9441H55.6037V25.4457Z" fill="#003428"/>
<path d="M87.948 33.6706H88.4221C89.1997 33.6706 89.8294 34.2812 89.8294 35.0353V39.2846H86.4938V33.716L66.6705 33.6925V39.2846H63.3516V22.5391H85.1333C85.911 22.5391 86.5406 23.1497 86.5406 23.9038V23.958C86.5406 24.7121 87.1703 25.3227 87.948 25.3227H88.4221C89.1997 25.3227 89.8294 25.9333 89.8294 26.6874V29.575C89.8294 30.3291 89.1997 30.9397 88.4221 30.9397H87.948C87.1703 30.9397 86.5406 31.5503 86.5406 32.3044C86.5406 33.0585 87.1703 33.6691 87.948 33.6691V33.6706ZM86.4938 25.3695H66.6705V30.8957H86.4938V25.3695Z" fill="#003428"/>
<path d="M146.137 32.321H126.575C125.788 32.321 125.149 31.7016 125.149 30.9387V30.9138C125.149 30.1509 124.511 29.5315 123.724 29.5315H123.297C122.51 29.5315 121.871 28.9121 121.871 28.1492V26.6849C121.871 25.922 122.51 25.3027 123.297 25.3027H123.724C124.511 25.3027 125.149 24.6833 125.149 23.9204V23.8999C125.149 23.137 125.788 22.5176 126.575 22.5176H144.79C145.577 22.5176 146.214 23.1355 146.215 23.8984V23.9394C146.215 24.7038 146.856 25.3231 147.644 25.3202L149.487 25.3158V28.1214L147.6 28.1111C146.816 28.1068 146.184 27.4888 146.184 26.7289V25.3466H125.198V29.4832H144.76C145.546 29.4832 146.185 30.1026 146.185 30.8655V30.8904C146.185 31.6533 146.824 32.2726 147.611 32.2726H148.065C148.852 32.2726 149.491 32.892 149.491 33.6549V35.1192C149.491 35.8821 148.852 36.5015 148.065 36.5015H147.611C146.824 36.5015 146.185 37.1209 146.185 37.8838C146.185 38.6467 145.546 39.2661 144.76 39.2661H126.6C125.814 39.2661 125.175 38.6467 125.175 37.8838C125.175 37.1209 124.536 36.5015 123.75 36.5015H121.874V33.6901H123.796C124.583 33.6901 125.222 34.3095 125.222 35.0724V36.4561H146.137V32.3195V32.321Z" fill="#003428"/>
<path d="M116.358 23.9555V23.9482C116.356 23.1824 115.716 22.5645 114.926 22.5645H96.797C96.0072 22.5645 95.3655 23.1853 95.3655 23.9526C95.3655 24.7184 94.7253 25.3407 93.934 25.3407H92.0586V28.1712H93.9506C94.7404 28.1712 95.3821 27.5503 95.3821 26.7831V25.3832H104.207V39.3481H107.513L107.501 25.3832L116.33 25.3612V26.7831C116.33 27.5489 116.971 28.1712 117.762 28.1712H119.658V25.3407H117.789C116.999 25.3407 116.359 24.7213 116.358 23.957V23.9555Z" fill="#003428"/>
<g opacity="0.1">
<path d="M4.8005 17.0098C4.8005 16.2527 4.16781 15.6392 3.38714 15.6392H2.92508C2.14441 15.6392 1.51172 15.0257 1.51172 14.2686V1.65234H4.8458V15.5953H24.6796V1.65234H28.0137V14.2672C28.0137 15.0242 27.381 15.6377 26.6004 15.6377H26.1383C25.3576 15.6377 24.7249 16.2513 24.7249 17.0083C24.7249 17.7653 24.0923 18.3789 23.3116 18.3789H6.21386C5.43319 18.3789 4.8005 17.7653 4.8005 17.0083V17.0098Z" fill="#003428"/>
<path d="M54.228 18.3803H32.4297V1.65234H54.228C55.0087 1.65234 55.6414 2.26588 55.6414 3.02292V3.06831C55.6414 3.82534 56.2741 4.43888 57.0548 4.43888H57.5168C58.2975 4.43888 58.9302 5.05242 58.9302 5.80945V14.2628C58.9302 15.0198 58.2975 15.6333 57.5168 15.6333H57.0548C56.2741 15.6333 55.6414 16.2469 55.6414 17.0039V17.0068C55.6414 17.7639 55.0087 18.3774 54.228 18.3774V18.3803ZM55.5976 4.48427H35.7426V15.5923H55.5991V4.48281L55.5976 4.48427Z" fill="#003428"/>
<path d="M66.6403 17.0083V17.0054C66.6403 16.2483 66.0077 15.6348 65.227 15.6348H64.7649C63.9843 15.6348 63.3516 15.0213 63.3516 14.2642V5.80945C63.3516 5.05242 63.9843 4.43888 64.7649 4.43888H65.227C66.0077 4.43888 66.6403 3.82534 66.6403 3.06831V3.02292C66.6403 2.26588 67.273 1.65234 68.0537 1.65234H85.1484C85.9291 1.65234 86.5618 2.26588 86.5618 3.02292V3.06831C86.5618 3.82534 87.1945 4.43888 87.9751 4.43888H89.8521V7.24884H87.9313C87.1507 7.24884 86.518 6.63531 86.518 5.87827V4.48281H66.6841V15.5909H86.518V14.1954C86.518 13.4384 87.1507 12.8248 87.9313 12.8248H89.8521V15.6348H87.9751C87.1945 15.6348 86.5618 16.2483 86.5618 17.0054V17.0083C86.5618 17.7653 85.9291 18.3789 85.1484 18.3789H68.0537C67.273 18.3789 66.6403 17.7653 66.6403 17.0083Z" fill="#003428"/>
<path d="M23.3183 33.7111H4.80112V39.3296H1.50781V22.584H23.3183C24.0959 22.584 24.7256 23.1946 24.7256 23.9487V23.9707C24.7256 24.7248 25.3552 25.3354 26.1329 25.3354H26.607C27.3847 25.3354 28.0144 25.946 28.0144 26.7001V29.5803C28.0144 30.3344 27.3847 30.9451 26.607 30.9451H26.1329C25.3552 30.9451 24.7256 31.5557 24.7256 32.3098V32.3449C24.7256 33.099 24.0959 33.7096 23.3183 33.7096V33.7111ZM24.6788 25.3808H4.80112V30.8997H24.6788V25.3808Z" fill="#003428"/>
<path d="M37.1258 22.5859H54.2431C55.0208 22.5859 55.6505 23.1965 55.6505 23.9507V24.0356C55.6505 24.7897 56.2801 25.4003 57.0578 25.4003H57.5319C58.3096 25.4003 58.9392 26.0109 58.9392 26.765V39.3315H55.6037V33.7321H35.7653V39.3315H32.4297V26.765C32.4297 26.0109 33.0594 25.4003 33.837 25.4003H34.3111C35.0888 25.4003 35.7185 24.7897 35.7185 24.0356V23.9507C35.7185 23.1965 36.3481 22.5859 37.1258 22.5859ZM55.6037 25.4457H35.7653V30.9441H55.6037V25.4457Z" fill="#003428"/>
<path d="M87.948 33.6706H88.4221C89.1997 33.6706 89.8294 34.2812 89.8294 35.0353V39.2846H86.4938V33.716L66.6705 33.6925V39.2846H63.3516V22.5391H85.1333C85.911 22.5391 86.5406 23.1497 86.5406 23.9038V23.958C86.5406 24.7121 87.1703 25.3227 87.948 25.3227H88.4221C89.1997 25.3227 89.8294 25.9333 89.8294 26.6874V29.575C89.8294 30.3291 89.1997 30.9397 88.4221 30.9397H87.948C87.1703 30.9397 86.5406 31.5503 86.5406 32.3044C86.5406 33.0585 87.1703 33.6691 87.948 33.6691V33.6706ZM86.4938 25.3695H66.6705V30.8957H86.4938V25.3695Z" fill="#003428"/>
<path d="M146.137 32.321H126.575C125.788 32.321 125.149 31.7016 125.149 30.9387V30.9138C125.149 30.1509 124.511 29.5315 123.724 29.5315H123.297C122.51 29.5315 121.871 28.9121 121.871 28.1492V26.6849C121.871 25.922 122.51 25.3027 123.297 25.3027H123.724C124.511 25.3027 125.149 24.6833 125.149 23.9204V23.8999C125.149 23.137 125.788 22.5176 126.575 22.5176H144.79C145.577 22.5176 146.214 23.1355 146.215 23.8984V23.9394C146.215 24.7038 146.856 25.3231 147.644 25.3202L149.487 25.3158V28.1214L147.6 28.1111C146.816 28.1068 146.184 27.4888 146.184 26.7289V25.3466H125.198V29.4832H144.76C145.546 29.4832 146.185 30.1026 146.185 30.8655V30.8904C146.185 31.6533 146.824 32.2726 147.611 32.2726H148.065C148.852 32.2726 149.491 32.892 149.491 33.6549V35.1192C149.491 35.8821 148.852 36.5015 148.065 36.5015H147.611C146.824 36.5015 146.185 37.1209 146.185 37.8838C146.185 38.6467 145.546 39.2661 144.76 39.2661H126.6C125.814 39.2661 125.175 38.6467 125.175 37.8838C125.175 37.1209 124.536 36.5015 123.75 36.5015H121.874V33.6901H123.796C124.583 33.6901 125.222 34.3095 125.222 35.0724V36.4561H146.137V32.3195V32.321Z" fill="#003428"/>
<path d="M116.358 23.9555V23.9482C116.356 23.1824 115.716 22.5645 114.926 22.5645H96.797C96.0072 22.5645 95.3655 23.1853 95.3655 23.9526C95.3655 24.7184 94.7253 25.3407 93.934 25.3407H92.0586V28.1712H93.9506C94.7404 28.1712 95.3821 27.5503 95.3821 26.7831V25.3832H104.207V39.3481H107.513L107.501 25.3832L116.33 25.3612V26.7831C116.33 27.5489 116.971 28.1712 117.762 28.1712H119.658V25.3407H117.789C116.999 25.3407 116.359 24.7213 116.358 23.957V23.9555Z" fill="#003428"/>
</g>
</svg>
